<svg xmlns="http://www.w3.org/2000/svg" width="256" height="256" viewBox="0 0 100 100">
    <rect width="100" height="100" rx="20" fill="#66bb6a"></rect>
    <path fill="#fff"
        d="M56.49 12.10L56.49 12.10Q63.29 12.10 67.66 14.10Q72.04 16.11 75.44 18.79L75.44 18.79Q77.50 20.34 78.58 19.15Q79.66 17.97 80.08 13.54L80.08 13.54L82.44 13.54Q82.24 17.66 82.14 23.58Q82.03 29.50 82.03 39.29L82.03 39.29L79.66 39.29Q79.25 34.34 78.33 30.48Q77.40 26.62 75.54 23.63Q73.69 20.64 70.19 18.38L70.19 18.38Q68.03 16.94 65.60 16.11Q63.18 15.29 60.61 15.29L60.61 15.29Q54.74 15.29 50.93 18.53Q47.12 21.78 45.00 26.98Q42.89 32.18 42.07 38.31Q41.25 44.44 41.25 50.21L41.25 50.21Q41.25 55.97 42.07 62.10Q42.89 68.23 45.00 73.43Q47.12 78.63 50.93 81.88Q54.74 85.12 60.61 85.12L60.61 85.12Q63.18 85.12 65.60 84.25Q68.03 83.37 70.19 82.03L70.19 82.03Q75.34 78.84 77.14 73.48Q78.94 68.13 79.66 59.68L79.66 59.68L82.03 59.68Q82.03 69.78 82.14 76.01Q82.24 82.24 82.44 86.46L82.44 86.46L80.08 86.46Q79.66 82.03 78.69 80.90Q77.71 79.77 75.44 81.21L75.44 81.21Q71.63 83.89 67.36 85.90Q63.08 87.90 56.39 87.90L56.39 87.90Q44.75 87.90 35.99 83.47Q27.24 79.05 22.40 70.70Q17.55 62.36 17.55 50.62L17.55 50.62Q17.55 39.08 22.55 30.43Q27.55 21.78 36.30 16.94Q45.06 12.10 56.49 12.10Z">
    </path>
</svg>