<?xml version="1.0" encoding="UTF-8"?>
<svg version="1.1" viewBox="0 0 2048 1264" width="816" height="504" xmlns="http://www.w3.org/2000/svg">
    <path transform="translate(493,391)"
        d="m0 0h21l16 4 16 8 9 7 8 8 8 13 6 16 2 10 1 18-2 19-5 21-7 20-11 24-11 19-16 24-9 12-2 2-9 1h-58l-30-3-29-5-26-7-20-8-15-8-14-10-10-9-8-8-10-14-7-15-4-14-1-7v-15l3-16 8-17 9-12 10-10 11-7 11-5 11-3 7-1h16l15 3 16 6 14 8 13 10 7 6 5 1 3-4 7-19 8-15 10-12 11-8 10-5z"
        fill="#201E1E" />
    <path transform="translate(491,379)"
        d="m0 0h24l17 4 14 6 12 8 12 11 9 13 6 12 5 16 2 14v19l-3 20-6 23-8 20-12 25-12 20-11 16-5 8 17-3 26-5 30-8 22-7h5l3 4v5l-5 3-16 6-29 8-36 7-29 4-11 13-11 12-4 5h-2l-2 4-10 9-16 15-11 9-18 14-20 14-17 11-20 12-22 12-17 9-28 13-27 11-28 10-31 10-15 4h-6l-3-4v-5l4-3 38-11 29-10 34-14 30-14 29-15 25-15 24-16 14-10 13-10 13-11 8-7 12-11 11-10 7-8 9-10 1-2h-53l-31-3-35-6-26-7-20-8-15-8-13-9-11-9-11-11-11-15-8-16-5-16-2-11v-19l3-14 5-13 7-13 9-11 9-9 13-9 10-5 12-4 11-2h21l16 3 16 6 18 10 12 9 8-16 7-12 9-10 8-8 11-7 13-5zm2 12-12 3-12 6-12 10-8 11-8 15-7 19-2 2-5-1-8-7-15-11-16-8-14-5-12-2h-16l-15 3-12 5-10 6-10 9-8 9-8 14-5 13-2 12v15l3 15 6 15 7 12 9 11 12 12 17 12 19 10 19 7 23 6 29 5 30 3h58l9-1 6-7 12-17 12-19 12-22 10-24 6-19 4-20 1-20-2-16-4-14-7-14-7-9-8-8-13-8-12-5-13-3z"
        fill="#AED9FE" />
    <path transform="translate(1098,592)"
        d="m0 0h14l13 3 9 6 6 8 4 10 3 19v153h-27l-1-13-9 10-8 4-5 1h-8l-10-3-8-6-6-10-4-13-2-22v-19l2-13 4-9 6-8 10-8 16-8 20-8h2v-33l-2-11-4-5-3-1h-11l-6 5-2 6-1 8-1 22h-27v-17l2-16 4-12 6-9 8-6 10-4z"
        fill="#AED9FE" />
    <path transform="translate(985,593)"
        d="m0 0h10l14 3 10 7 7 11 4 16 1 8v56l-1 1h-58l1 17 1 40 2 11 3 5 5 2h10l5-3 3-7 1-7 1-35h27v24l-3 24-4 11-7 9-8 5-13 3h-14l-12-3-9-5-7-8-5-12-3-17-1-24v-70l1-18 3-15 5-12 7-8 10-6 6-2z"
        fill="#AED9FE" />
    <path transform="translate(822,559)"
        d="m0 0h26l1 1 1 51 8-10 10-6 7-2h9l8 2 8 5 6 7 4 10 1 4 1 16v153l-1 2h-25l-1-1-1-42v-117l-3-9-4-4-6-2-9 1-7 4-4 7-1 4-1 158-1 1h-25l-1-1-1-26v-102z"
        fill="#AED9FE" />
    <path transform="translate(1326,559)"
        d="m0 0h25l1 1 1 52 6-8 8-7 11-4h9l9 2 8 6 5 6 4 9 2 13v162l-4 1h-22l-1-1-1-23v-135l-2-9-5-5-10-2-9 3-6 7-2 7-1 157-1 1h-24l-2-1v-231z"
        fill="#AED9FE" />
    <path transform="translate(1670,562)"
        d="m0 0h29v164h18v21l-5 1-13-1v43l-1 1h-24l-1-43-54-1v-20l9-29 15-48 17-56 9-30z" fill="#AED9FE" />
    <path transform="translate(1552,559)"
        d="m0 0h17l10 3 8 6 7 11 4 15 2 19v18l-2 17-4 15-7 16-30 54-7 16-3 17v4l49 1v20l-5 1h-69l-3-1v-19l3-22 5-15 9-19 13-23 14-25 5-11 4-16 1-9v-29l-2-13-4-6-3-1h-9l-5 4-3 7-1 5-1 18-1 35h-26v-38l2-20 3-12 5-10 7-7 8-4z"
        fill="#AED9FE" />
    <path transform="translate(1732,562)"
        d="m0 0h92v20l-5 16-12 36-10 36-8 35-6 35-6 51-1 1h-26l-2-1 1-18 5-36 6-31 9-36 14-47 11-31 3-7h-65z"
        fill="#AED9FE" />
    <path transform="translate(1252,562)"
        d="m0 0h27v35h21v20h-21l1 148 1 3 7 2 12 1 1 3v15l-1 4h-22l-13-2-6-4-4-5-3-10v-155h-17l-1-1v-19h18z"
        fill="#AED9FE" />
    <path transform="translate(1183,559)" d="m0 0h26v233h-26l-1-1v-231z" fill="#AED9FE" />
    <path transform="translate(1118,683)" d="m0 0h2v74l-4 7-8 6-9 1-7-3-4-8-1-7v-41l3-10 5-6 11-7z" fill="#201E1E" />
    <path transform="translate(1672,611)" d="m0 0h2v114l-1 1h-31l2-10 15-56z" fill="#201E1E" />
    <path transform="translate(983,616)" d="m0 0h13l6 7 2 8v45h-32v-28l1-15 3-9 4-6z" fill="#201E1E" />
    <path transform="translate(672,570)" d="m0 0h7l5 3 3 5-1 8-5 5-2 1h-7l-5-3-3-6 1-7 5-5z" fill="#AED9FE" />
</svg>