<svg xmlns="http://www.w3.org/2000/svg" version="1.1" xmlns:xlink="http://www.w3.org/1999/xlink"
    xmlns:svgjs="http://svgjs.dev/svgjs" viewBox="0 0 800 800">
    <defs>
        <linearGradient x1="50%" y1="0%" x2="50%" y2="100%" id="ccchaos-grad">
            <stop stop-color="hsl(206, 75%, 49%)" stop-opacity="1" offset="0%"></stop>
            <stop stop-color="hsl(331, 90%, 56%)" stop-opacity="1" offset="100%"></stop>
        </linearGradient>
    </defs>
    <g stroke-width="2" stroke="url(#ccchaos-grad)" fill="none" stroke-linecap="round">
        <path
            d="M406.92 113.05C416.96 110.84 427.21 109.22 437.66 108.22 448.14 107.38 458.81 107.23 469.66 107.76 480.51 108.54 491.49 110.05 502.53 112.27 513.51 114.77 524.44 117.98 535.19 121.86 545.71 126.02 555.87 130.82 565.48 136.2 574.59 141.81 582.91 147.96 590.23 154.59 596.79 161.38 602.14 168.59 606.16 176.17 609.34 183.84 611.2 191.83 611.78 200.09 611.87 208.37 611.09 216.89 609.71 225.6 608.72 234.29 607.88 243.15 607.64 252.16 608.9 261.12 611.51 270.22 615.79 279.44 622.23 288.6 630.53 297.89 640.54 307.29 652.17 316.64 664.73 326.12 677.55 335.7 690.13 345.26 701.46 354.94 710.73 364.73 717.61 374.51 721.23 384.42 721.24 394.44 718.14 404.46 711.66 414.6 702.31 424.84 691.52 435.08 679.86 445.18 668.4 455.1 658.32 465.02 650.01 474.75 643.98 484.25 640.82 493.73 640.15 502.95 641.66 511.87 645.43 520.74 650.36 529.27 655.75 537.41 661.57 545.45 666.54 553.07 670.12 560.2 672.48 567.2 672.71 573.68 670.69 579.6 666.86 585.35 660.84 590.53 652.9 595.11 643.54 599.52 632.79 603.35 621.07 606.59 608.74 609.74 596.02 612.35 583.23 614.47 570.53 616.61 558.12 618.37 546.15 619.8 534.61 621.44 523.6 622.9 513.1 624.26 503.08 626.04 493.48 627.87 484.22 629.83 475.32 632.4 466.6 635.22 457.98 638.32 449.55 642.12 441.08 646.25 432.5 650.68 424 655.76 415.31 661.06 406.41 666.48 397.51 672.33 388.37 678.1 379 683.64 369.62 689.23 360.24 694.17 350.9 698.35 341.6 702.19 332.38 705.04 323.31 706.83 314.31 708.03 305.53 708.07 297.02 706.94 288.64 705.12 280.6 702.15 272.96 698.11 265.47 693.42 258.43 687.76 251.86 681.23 245.42 674.23 239.45 666.51 233.94 658.18 228.46 649.59 223.36 640.54 218.59 631.15 213.67 621.68 208.94 611.98 204.33 602.15 199.35 592.36 194.35 582.51 189.28 572.65 183.69 562.92 177.97 553.19 172.12 543.52 165.81 533.99 159.46 524.5 153.16 515.05 146.68 505.74 140.48 496.44 134.7 487.16 129.15 477.99 124.28 468.79 120.23 459.57 116.72 450.42 114.17 441.21 112.63 431.95 111.65 422.72 111.59 413.41 112.4 404.03 113.43 394.66 115.03 385.22 117.06 375.7 118.82 366.19 120.66 356.84 122.47 347.67 123.7 338.5 124.82 329.52 125.85 320.75 126.38 312.01 126.98 303.49 127.78 295.24 128.43 287.01 129.54 279.06 131.24 271.43 133.21 263.83 135.99 256.55 139.61 249.62 143.75 242.73 148.78 236.2 154.67 230.04 161.05 223.91 168.17 218.15 175.9 212.78 183.91 207.4 192.35 202.37 201.08 197.72 209.82 193.01 218.7 188.62 227.62 184.56 236.33 180.38 245.02 176.48 253.64 172.83 261.97 169 270.25 165.39 278.5 161.97 286.45 158.31 294.44 154.8 302.51 151.46 310.35 147.83 318.34 144.34 326.52 141.01 334.56 137.39 342.86 133.94 351.46 130.68 359.98 127.2 368.84 123.97 378.07 121.03 387.27 117.97 396.88 115.29 406.91 113.06"
            stroke-dasharray="7 4" transform="rotate(0, 400, 400)" opacity="0.74"></path>
        <path
            d="M413.55 124.03C423.34 121.84 433.3 120.22 443.38 119.19 453.47 118.3 463.69 118.07 473.97 118.5 484.22 119.16 494.5 120.5 504.7 122.53 514.79 124.82 524.69 127.79 534.27 131.4 543.57 135.27 552.37 139.76 560.52 144.82 568.18 150.1 574.97 155.91 580.77 162.2 585.9 168.65 589.91 175.52 592.73 182.77 594.95 190.11 596.08 197.78 596.25 205.73 596.23 213.72 595.66 221.95 594.85 230.38 594.66 238.82 594.89 247.43 595.91 256.19 598.45 264.92 602.36 273.8 607.84 282.78 615.23 291.73 624.21 300.81 634.58 309.97 646.19 319.11 658.39 328.35 670.56 337.69 682.25 347.01 692.6 356.43 700.86 365.94 706.85 375.43 709.79 385.03 709.4 394.72 706.21 404.4 699.94 414.17 691.06 424 680.85 433.84 669.82 443.5 658.86 452.96 649.08 462.42 640.81 471.66 634.5 480.65 630.77 489.62 629.29 498.31 629.85 506.69 632.6 515.01 636.59 522.99 641.23 530.57 646.53 538.06 651.34 545.13 655.14 551.74 658.7 561.21 654.1 577.39 645.76 584.02 638.17 588.14 629.11 591.73 618.89 594.8 607.9 597.81 596.26 600.37 584.29 602.49 572.16 604.68 560.07 606.54 548.19 608.12 536.55 609.94 525.27 611.62 514.41 613.23 503.91 615.25 493.8 617.33 484.05 619.53 474.61 622.3 465.42 625.29 456.42 628.52 447.61 632.4 438.88 636.55 430.17 640.94 421.55 645.92 412.86 651.07 404.1 656.29 395.36 661.9 386.49 667.4 377.51 672.67 368.53 677.98 359.64 682.68 350.89 686.66 342.16 690.35 333.58 693.13 325.23 694.92 316.93 696.19 308.88 696.38 301.15 695.5 293.51 693.99 286.22 691.41 279.33 687.82 272.54 683.64 266.15 678.52 260.2 672.57 254.3 666.16 248.79 659.04 243.67 651.31 238.48 643.3 233.58 634.82 228.91 625.96 224.02 616.99 219.23 607.76 214.48 598.34 209.33 588.94 204.1 579.43 198.77 569.87 192.96 560.39 187.01 550.9 180.96 541.43 174.52 532.07 168.08 522.73 161.76 513.43 155.33 504.25 149.23 495.07 143.62 485.93 138.27 476.87 133.64 467.81 129.85 458.76 126.61 449.76 124.31 440.73 123.01 431.68 122.25 422.66 122.38 413.59 123.33 404.49 124.5 395.4 126.21 386.27 128.32 377.1 130.16 367.93 132.06 358.95 133.92 350.17 135.2 341.39 136.35 332.82 137.4 324.48 137.92 316.15 138.48 308.06 139.17 300.23 139.67 292.43 140.57 284.9 141.98 277.69 143.6 270.49 145.95 263.61 149.09 257.07 152.7 250.55 157.18 244.36 162.49 238.54 168.31 232.72 174.88 227.24 182.11 222.12 189.68 216.97 197.75 212.16 206.19 207.68 214.74 203.13 223.49 198.87 232.38 194.91 241.15 190.82 249.95 186.98 258.74 183.37 267.3 179.58 275.82 175.99 284.31 172.57 292.56 168.92 300.81 165.42 309.09 162.07 317.16 158.46 325.34 154.98 333.65 151.65 341.81 148.06 350.18 144.64 358.78 141.41 367.3 137.98 376.1 134.79 385.22 131.89 394.3 128.88 403.74 126.24 413.53 124.03"
            stroke-dasharray="7 9" transform="rotate(4.04, 400, 400)" opacity="0.42"></path>
        <path
            d="M418.68 135C428.2 132.84 437.78 131.22 447.41 130.17 457.03 129.25 466.67 128.95 476.26 129.27 485.81 129.81 495.26 131 504.51 132.83 513.61 134.92 522.4 137.64 530.76 140.98 538.83 144.58 546.31 148.76 553.07 153.5 559.38 158.45 564.84 163.92 569.34 169.85 573.32 175.94 576.31 182.46 578.3 189.35 579.91 196.35 580.7 203.68 580.82 211.29 581.01 218.96 580.95 226.88 580.93 235 581.71 243.14 583.09 251.47 585.36 259.95 589.13 268.42 594.2 277.03 600.69 285.75 608.84 294.46 618.29 303.27 628.81 312.18 640.24 321.07 651.95 330.05 663.37 339.11 674.16 348.16 683.51 357.3 690.8 366.5 695.95 375.7 698.27 384.97 697.53 394.3 694.28 403.63 688.23 413.01 679.8 422.43 670.18 431.85 659.74 441.08 649.3 450.08 639.85 459.08 631.65 467.84 625.16 476.33 620.94 484.8 618.73 492.98 618.42 500.84 620.19 508.64 623.22 516.09 627.04 523.16 631.71 530.14 636.18 536.71 639.98 542.83 644.23 551.63 643.05 566.65 637.08 572.84 631.22 576.73 623.85 580.13 615.23 583.08 605.74 586.01 595.42 588.54 584.54 590.7 573.32 592.96 561.9 594.94 550.48 596.69 539.1 598.7 527.92 600.59 517.01 602.43 506.34 604.68 495.98 606.98 485.95 609.4 476.16 612.34 466.65 615.47 457.37 618.82 448.27 622.74 439.32 626.88 430.49 631.23 421.76 636.09 413.07 641.07 404.41 646.09 395.78 651.45 387.14 656.7 378.49 661.69 369.85 666.74 361.4 671.2 353.16 674.99 344.93 678.52 336.93 681.21 329.2 683 321.5 684.32 314.1 684.65 307.03 683.98 300.01 682.76 293.34 680.54 287.05 677.37 280.8 673.66 274.92 669.07 269.41 663.67 263.88 657.84 258.68 651.31 253.76 644.17 248.72 636.75 243.87 628.85 239.17 620.55 234.18 612.1 229.23 603.37 224.26 594.42 218.88 585.44 213.4 576.31 207.8 567.11 201.76 557.95 195.61 548.75 189.39 539.54 182.87 530.41 176.4 521.28 170.11 512.18 163.79 503.17 157.86 494.18 152.45 485.21 147.36 476.32 143.01 467.43 139.5 458.56 136.54 449.74 134.51 440.92 133.45 432.09 132.9 423.29 133.21 414.48 134.3 405.66 135.59 396.85 137.39 388.02 139.57 379.19 141.48 370.36 143.44 361.74 145.35 353.33 146.68 344.93 147.88 336.74 148.96 328.8 149.49 320.86 150.03 313.17 150.65 305.75 151.04 298.34 151.76 291.21 152.91 284.37 154.21 277.55 156.17 271.03 158.84 264.84 161.94 258.65 165.85 252.78 170.57 247.25 175.78 241.7 181.75 236.48 188.41 231.58 195.45 226.64 203.04 222 211.07 217.67 219.28 213.26 227.79 209.11 236.49 205.23 245.18 201.22 253.97 197.43 262.79 193.85 271.47 190.1 280.14 186.51 288.79 183.1 297.26 179.47 305.72 175.97 314.19 172.62 322.49 169.02 330.84 165.55 339.27 162.24 347.58 158.69 356.03 155.3 364.64 152.1 373.19 148.73 381.94 145.59 390.94 142.73 399.91 139.78 409.15 137.18 418.67 135"
            stroke-dasharray="4 7" transform="rotate(8.08, 400, 400)" opacity="0.46"></path>
        <path
            d="M421.75 145.97C430.94 143.84 440.09 142.23 449.18 141.16 458.27 140.21 467.25 139.85 476.09 140.07 484.87 140.5 493.42 141.54 501.67 143.19 509.77 145.07 517.46 147.56 524.63 150.64 531.53 153.95 537.81 157.84 543.35 162.24 548.52 166.86 552.89 171.98 556.39 177.55 559.52 183.29 561.83 189.44 563.35 195.96 564.71 202.6 565.5 209.57 565.89 216.82 566.57 224.14 567.25 231.71 568.17 239.5 570 247.32 572.54 255.33 576.01 263.49 580.89 271.66 586.96 279.98 594.27 288.4 602.95 296.83 612.67 305.36 623.16 313.97 634.25 322.58 645.36 331.27 655.97 340.03 665.82 348.78 674.19 357.6 680.57 366.48 684.93 375.35 686.68 384.27 685.64 393.23 682.34 402.19 676.53 411.18 668.55 420.18 659.49 429.18 649.64 437.96 639.73 446.51 630.62 455.05 622.56 463.34 615.93 471.35 611.31 479.33 608.47 487.02 607.36 494.38 608.19 501.7 610.29 508.66 613.25 515.25 617.19 521.77 621.18 527.88 624.78 533.57 629.35 541.77 630.81 555.81 626.92 561.64 622.64 565.34 616.9 568.61 609.9 571.48 601.99 574.36 593.12 576.9 583.54 579.13 573.48 581.47 563.02 583.59 552.36 585.52 541.59 587.71 530.84 589.81 520.21 591.87 509.68 594.32 499.37 596.82 489.31 599.43 479.42 602.52 469.77 605.77 460.38 609.19 451.12 613.13 442.06 617.25 433.18 621.52 424.39 626.26 415.72 631.07 407.17 635.89 398.64 641 390.2 645.99 381.85 650.72 373.49 655.5 365.41 659.72 357.61 663.32 349.8 666.7 342.28 669.3 335.07 671.06 327.87 672.42 320.98 672.87 314.44 672.4 307.9 671.43 301.7 669.54 295.85 666.76 289.97 663.5 284.43 659.39 279.19 654.53 273.87 649.25 268.8 643.3 263.94 636.75 258.89 629.92 253.97 622.59 249.12 614.86 243.95 606.96 238.77 598.75 233.54 590.3 227.9 581.78 222.16 573.09 216.3 564.29 210.07 555.5 203.76 546.64 197.43 537.75 190.88 528.91 184.45 520.05 178.24 511.2 172.09 502.42 166.38 493.65 161.23 484.9 156.43 476.21 152.39 467.54 149.19 458.89 146.53 450.28 144.78 441.68 143.96 433.1 143.62 424.55 144.1 415.99 145.32 407.46 146.72 398.93 148.59 390.41 150.83 381.92 152.8 373.42 154.8 365.14 156.75 357.1 158.15 349.05 159.4 341.23 160.51 333.67 161.09 326.1 161.63 318.78 162.21 311.73 162.52 304.69 163.1 297.92 164.04 291.44 165.06 284.96 166.66 278.77 168.9 272.89 171.5 267 174.86 261.41 178.98 256.13 183.56 250.83 188.9 245.83 194.92 241.12 201.35 236.36 208.37 231.88 215.87 227.67 223.63 223.38 231.75 219.32 240.14 215.51 248.6 211.56 257.22 207.81 265.93 204.26 274.58 200.53 283.28 196.96 291.97 193.55 300.55 189.93 309.13 186.44 317.7 183.09 326.15 179.51 334.63 176.07 343.14 172.77 351.56 169.26 360.06 165.91 368.66 162.76 377.2 159.45 385.89 156.36 394.73 153.56 403.55 150.67 412.55 148.12 421.74 145.97"
            stroke-dasharray="7 2" transform="rotate(12.12, 400, 400)" opacity="0.17"></path>
        <path
            d="M422.43 156.94C431.23 154.85 439.9 153.26 448.41 152.17 456.91 151.19 465.21 150.77 473.26 150.91 481.24 151.23 488.91 152.13 496.19 153.6 503.33 155.29 509.99 157.55 516.11 160.37 521.99 163.41 527.24 166.99 531.8 171.07 536.08 175.36 539.64 180.13 542.46 185.33 545.08 190.7 547.05 196.48 548.45 202.61 549.87 208.87 550.96 215.46 551.87 222.33 553.24 229.28 554.79 236.49 556.74 243.91 559.63 251.38 563.28 259.04 567.84 266.86 573.67 274.7 580.54 282.69 588.46 290.79 597.48 298.89 607.26 307.1 617.54 315.39 628.15 323.69 638.57 332.06 648.33 340.49 657.24 348.91 664.66 357.4 670.15 365.92 673.79 374.44 675.02 383.01 673.72 391.58 670.41 400.15 664.83 408.74 657.29 417.31 648.78 425.88 639.52 434.23 630.12 442.32 621.39 450.41 613.5 458.24 606.82 465.79 601.88 473.31 598.5 480.53 596.66 487.43 596.63 494.29 597.82 500.8 599.92 506.95 603.07 513.04 606.45 518.76 609.69 524.07 614.24 531.74 617.56 544.95 615.4 550.5 612.52 554.06 608.28 557.24 602.8 560.06 596.46 562.94 589.1 565.51 580.92 567.82 572.18 570.27 562.9 572.53 553.26 574.63 543.37 576.99 533.34 579.28 523.28 581.55 513.2 584.17 503.22 586.85 493.4 589.62 483.66 592.82 474.11 596.16 464.79 599.64 455.56 603.57 446.53 607.65 437.7 611.84 428.94 616.43 420.35 621.06 411.94 625.68 403.55 630.55 395.3 635.27 387.2 639.75 379.1 644.26 371.33 648.26 363.88 651.67 356.42 654.89 349.28 657.38 342.47 659.12 335.64 660.5 329.14 661.05 322.96 660.75 316.76 660.01 310.87 658.42 305.29 656.01 299.65 653.15 294.27 649.51 289.15 645.15 283.88 640.4 278.8 635.01 273.87 629.04 268.71 622.78 263.61 616.04 258.53 608.88 253.14 601.54 247.69 593.87 242.17 585.94 236.28 577.92 230.3 569.71 224.23 561.35 217.85 552.98 211.45 544.5 205.08 535.97 198.57 527.47 192.24 518.93 186.19 510.38 180.28 501.88 174.83 493.38 169.98 484.9 165.52 476.46 161.81 468.03 158.93 459.64 156.59 451.28 155.12 442.93 154.53 434.61 154.4 426.32 155.04 418.05 156.38 409.8 157.87 401.57 159.81 393.36 162.08 385.19 164.1 377.02 166.15 369.08 168.14 361.38 169.59 353.68 170.9 346.21 172.07 339 172.69 331.78 173.26 324.81 173.84 318.11 174.11 311.4 174.58 304.96 175.35 298.8 176.13 292.63 177.42 286.74 179.27 281.14 181.4 275.52 184.23 270.18 187.77 265.13 191.72 260.04 196.4 255.23 201.76 250.69 207.52 246.09 213.9 241.74 220.79 237.64 227.98 233.44 235.59 229.47 243.52 225.71 251.6 221.81 259.9 218.1 268.35 214.57 276.82 210.86 285.38 207.3 293.98 203.9 302.52 200.3 311.09 196.82 319.65 193.48 328.14 189.93 336.64 186.52 345.15 183.25 353.59 179.79 362.07 176.49 370.59 173.39 379.08 170.14 387.64 167.12 396.28 164.37 404.9 161.55 413.62 159.06 422.42 156.95"
            stroke-dasharray="7 5" transform="rotate(16.16, 400, 400)" opacity="0.83"></path>
        <path
            d="M420.64 167.92C429.01 165.87 437.16 164.29 445.07 163.19 452.95 162.2 460.56 161.73 467.85 161.78 475.07 162 481.91 162.76 488.32 164.07 497.49 166.59 512.9 174.59 518.97 180 524.16 186.16 531.54 200.9 534.08 209.34 535.83 215.21 537.44 221.41 539.06 227.88 541.24 234.45 543.73 241.27 546.71 248.3 550.62 255.39 555.27 262.68 560.77 270.13 567.36 277.61 574.84 285.23 583.15 292.97 592.29 300.72 601.96 308.59 611.87 316.52 621.9 324.47 631.55 332.5 640.42 340.57 648.39 348.64 654.89 356.77 659.56 364.92 662.53 373.07 663.3 381.25 661.77 389.42 658.48 397.6 653.14 405.78 646.04 413.92 638.06 422.06 629.37 429.96 620.5 437.62 612.15 445.27 604.48 452.65 597.8 459.75 592.62 466.83 588.79 473.62 586.32 480.08 585.5 486.51 585.83 492.62 587.07 498.37 590.74 506.75 599.08 521.63 602.07 528.09 603.49 534.15 599.49 544.5 593.94 548.88 589.07 551.77 583.18 554.4 576.43 556.8 569.1 559.36 561.11 561.75 552.64 564.02 543.85 566.54 534.76 569.01 525.51 571.45 516.15 574.23 506.76 577.06 497.42 579.96 488.09 583.25 478.87 586.65 469.81 590.15 460.8 594.07 451.96 598.08 443.32 602.16 434.72 606.6 426.3 611.05 418.07 615.46 409.86 620.08 401.82 624.55 393.96 628.77 386.1 633.03 378.59 636.8 371.42 640.02 364.24 643.08 357.39 645.48 350.86 647.17 344.3 648.56 338.05 649.19 332.11 649.04 326.11 648.5 320.39 647.18 314.93 645.1 309.38 642.63 304.03 639.42 298.88 635.53 293.56 631.29 288.36 626.43 283.25 621.02 277.9 615.33 272.57 609.16 267.23 602.57 261.57 595.8 255.86 588.68 250.08 581.29 243.98 573.8 237.8 566.08 231.58 558.2 225.13 550.28 218.7 542.24 212.36 534.11 205.97 525.99 199.82 517.82 194.01 509.62 188.38 501.45 183.26 493.26 178.75 485.08 174.65 476.94 171.3 468.8 168.76 460.69 166.73 452.61 165.54 444.54 165.19 436.51 165.25 428.5 166.04 420.52 167.48 412.58 169.04 404.65 171.03 396.76 173.34 388.92 175.39 381.08 177.47 373.47 179.49 366.1 181.01 358.73 182.38 351.6 183.6 344.71 184.3 337.82 184.92 331.18 185.51 324.8 185.77 318.4 186.18 312.27 186.83 306.4 187.93 297.7 192.84 281.6 196.99 274.19 200.34 269.3 204.37 264.65 209.04 260.25 214.11 255.79 219.79 251.55 226 247.54 232.54 243.43 239.52 239.52 246.88 235.8 254.44 231.95 262.27 228.27 270.31 224.76 278.44 221.08 286.71 217.54 295.05 214.15 303.41 210.57 311.81 207.11 320.22 203.79 328.61 200.28 337 196.9 345.39 193.67 353.75 190.27 362.11 187.03 370.47 183.98 378.81 180.8 387.17 177.85 395.53 175.17 403.89 172.42 412.26 169.99 420.63 167.92"
            stroke-dasharray="6 5" transform="rotate(20.200000000000003, 400, 400)" opacity="0.75"></path>
        <path
            d="M416.58 178.89C424.47 176.89 432.09 175.33 439.4 174.23 446.69 173.23 453.65 172.71 460.23 172.69 469.82 173.13 486.66 176.82 493.76 180.06 500.18 184.07 510.29 194.68 514.13 201.19 516.6 205.82 518.77 210.82 520.74 216.17 523.01 221.65 525.29 227.43 527.73 233.5 530.76 239.66 534.19 246.07 538.14 252.7 542.95 259.4 548.46 266.28 554.71 273.33 561.86 280.43 569.73 287.66 578.2 295.02 587.29 302.39 596.66 309.88 606.08 317.44 615.42 325.01 624.25 332.66 632.23 340.35 639.27 348.05 644.9 355.79 648.8 363.55 651.15 371.32 651.51 379.1 649.8 386.86 646.54 394.64 641.46 402.39 634.78 410.1 627.33 417.81 619.2 425.28 610.84 432.51 602.9 439.72 595.48 446.68 588.86 453.36 583.52 460.02 579.33 466.39 576.33 472.45 574.56 481.36 577.22 497.5 580.35 504.71 586.45 517.53 587.25 533.61 583.43 537.99 579.87 540.9 575.34 543.6 569.95 546.1 564.01 548.76 557.36 551.29 550.13 553.72 542.55 556.38 534.56 559 526.3 561.6 517.85 564.51 509.26 567.45 500.61 570.45 491.9 573.8 483.22 577.23 474.61 580.74 466.02 584.6 457.54 588.53 449.21 592.5 440.9 596.78 432.74 601.04 424.76 605.23 416.8 609.61 409 613.83 401.38 617.8 393.76 621.81 386.49 625.35 379.54 628.39 372.58 631.29 365.94 633.57 359.6 635.22 353.21 636.61 347.11 637.29 341.28 637.27 335.38 636.92 329.71 635.84 324.25 634.06 318.67 631.93 313.26 629.13 307.98 625.68 302.52 621.92 297.13 617.57 291.8 612.69 286.22 607.55 280.64 601.94 275.03 595.92 269.14 589.71 263.2 583.16 257.2 576.31 250.94 569.35 244.65 562.16 238.37 554.78 231.92 547.35 225.55 539.77 219.34 532.09 213.15 524.39 207.25 516.62 201.73 508.81 196.45 501.01 191.7 493.18 187.57 485.34 183.86 477.53 180.88 469.72 178.68 461.93 176.98 454.15 176.06 446.4 175.93 438.68 176.17 430.98 177.09 423.31 178.62 415.68 180.25 408.07 182.27 400.49 184.59 392.98 186.67 385.46 188.77 378.18 190.82 371.14 192.4 364.09 193.83 357.28 195.12 350.71 195.9 344.13 196.58 337.79 197.22 331.7 197.7 322.67 199.31 305.82 200.94 298 203.25 290.38 211.15 276.26 216.85 269.74 221.22 265.4 226.18 261.26 231.67 257.33 237.49 253.29 243.78 249.44 250.47 245.77 257.4 241.97 264.64 238.32 272.14 234.83 279.77 231.18 287.59 227.66 295.53 224.29 303.53 220.73 311.61 217.31 319.72 214.02 327.86 210.55 336.01 207.21 344.14 204.03 352.28 200.69 360.41 197.52 368.5 194.54 376.6 191.44 384.66 188.56 392.68 185.95 400.7 183.28 408.67 180.91 416.57 178.89"
            stroke-dasharray="8 10" transform="rotate(24.24, 400, 400)" opacity="0.39"></path>
        <path
            d="M410.69 189.86C418.09 187.91 425.17 186.39 431.92 185.29 438.64 184.27 445.01 183.72 450.99 183.63 459.69 183.92 474.87 187.13 481.28 190.04 487.17 193.66 496.88 203.33 500.93 209.3 504.97 215.87 513.22 230.89 518.01 239.23 521.88 244.97 526.17 250.97 530.98 257.18 536.55 263.45 542.72 269.92 549.51 276.56 557.01 283.24 565.05 290.07 573.5 297.01 582.34 303.99 591.29 311.07 600.09 318.22 608.68 325.4 616.66 332.65 623.73 339.94 629.89 347.24 634.68 354.58 637.87 361.93 639.67 369.29 639.67 376.66 637.82 384.01 634.62 391.36 629.79 398.69 623.53 405.97 616.58 413.25 608.99 420.3 601.16 427.1 593.64 433.9 586.5 440.45 580 446.72 574.57 452.98 570.11 458.97 566.66 464.67 563.92 473.04 564.26 488.25 566.35 495.07 571.59 507.33 573.91 523.01 571.46 527.41 567.33 531.75 554.16 539.82 545.5 543.71 539.15 546.49 532.33 549.24 525.14 551.97 517.74 554.98 510.08 558.01 502.27 561.08 494.36 564.46 486.38 567.9 478.39 571.38 470.37 575.17 462.39 579.01 454.5 582.85 446.61 586.95 438.82 591.01 431.17 594.99 423.53 599.13 416.02 603.1 408.65 606.83 401.29 610.59 394.24 613.91 387.48 616.76 380.71 619.5 374.22 621.68 367.99 623.27 361.72 624.64 355.69 625.37 349.89 625.45 344 625.25 338.3 624.39 332.76 622.89 327.1 621.08 321.55 618.64 316.09 615.61 310.45 612.3 304.86 608.43 299.29 604.05 293.5 599.44 287.69 594.37 281.85 588.9 275.78 583.25 269.67 577.26 263.53 570.96 257.21 564.55 250.9 557.89 244.63 551.03 238.29 544.1 232.08 537.01 226.08 529.8 220.17 522.57 214.59 515.24 209.43 507.85 204.54 500.45 200.19 493.02 196.47 485.56 193.17 478.12 190.57 470.66 188.72 463.22 187.33 455.79 186.67 448.37 186.75 440.99 187.17 433.61 188.2 426.27 189.8 418.97 191.48 411.68 193.53 404.44 195.85 397.25 197.94 390.07 200.06 383.11 202.13 376.39 203.75 369.65 205.25 363.15 206.61 356.88 207.47 350.6 208.24 344.55 208.94 338.73 209.48 330.1 210.9 313.97 212.22 306.46 214.04 299.13 220.49 285.47 225.28 279.13 228.97 274.89 233.21 270.84 237.97 266.98 243.04 263.02 248.59 259.22 254.55 255.59 260.76 251.83 267.32 248.22 274.16 244.75 281.18 241.14 288.42 237.65 295.81 234.3 303.31 230.79 310.92 227.4 318.59 224.15 326.32 220.74 334.08 217.46 341.84 214.33 349.63 211.07 357.4 207.97 365.12 205.06 372.86 202.05 380.54 199.26 388.15 196.72 395.76 194.13 403.28 191.83 410.68 189.87"
            stroke-dasharray="2 3" transform="rotate(28.28, 400, 400)" opacity="0.56"></path>
        <path
            d="M403.62 200.84C410.52 198.94 417.09 197.45 423.32 196.36 432.47 195.05 448.89 194.76 456.12 195.82 462.91 197.52 474.64 203.34 479.68 207.42 484.58 212.11 493.82 223.56 498.58 230.24 502.15 234.91 505.92 239.87 509.98 245.1 514.6 250.42 519.63 255.99 525.13 261.76 531.26 267.61 537.9 273.65 545.01 279.85 552.66 286.1 560.66 292.5 568.9 299.02 577.35 305.57 585.73 312.23 593.84 318.96 601.62 325.72 608.73 332.55 614.92 339.42 620.22 346.31 624.24 353.23 626.78 360.16 628.08 367.1 627.77 374.05 625.82 380.98 622.69 387.91 618.12 394.81 612.28 401.67 605.82 408.52 598.76 415.15 591.44 421.55 584.35 427.94 577.53 434.09 571.2 439.98 565.75 445.87 561.1 451.5 557.3 456.86 553.73 464.74 551.9 479.12 552.92 485.61 556.92 497.4 559.76 512.78 558.31 517.21 555.53 521.62 545.6 529.95 538.68 534.01 533.52 536.89 527.85 539.74 521.75 542.57 515.43 545.65 508.78 548.74 501.9 551.85 494.88 555.23 487.71 558.64 480.44 562.08 473.12 565.78 465.77 569.5 458.42 573.2 451.06 577.12 443.73 580.98 436.48 584.74 429.23 588.64 422.05 592.37 414.97 595.86 407.89 599.37 401.07 602.48 394.49 605.15 387.9 607.73 381.53 609.79 375.38 611.32 369.19 612.66 363.19 613.42 357.36 613.59 351.46 613.52 345.69 612.85 340.03 611.59 334.26 610.07 328.56 607.97 322.92 605.32 317.12 602.42 311.34 599.01 305.56 595.11 299.61 591 293.63 586.45 287.64 581.51 281.47 576.41 275.29 570.96 269.12 565.21 262.83 559.35 256.59 553.23 250.46 546.89 244.32 540.49 238.36 533.91 232.66 527.19 227.1 520.44 221.91 513.58 217.16 506.63 212.7 499.68 208.79 492.67 205.5 485.62 202.61 478.57 200.4 471.51 198.89 464.44 197.8 457.38 197.39 450.33 197.66 443.3 198.23 436.28 199.37 429.28 201.02 422.32 202.74 415.37 204.79 408.46 207.1 401.61 209.19 394.76 211.32 388.13 213.4 381.71 215.07 375.29 216.63 369.09 218.05 363.1 219.44 354.22 221.29 337.52 222.04 329.7 222.65 322.06 225.19 307.76 227.44 301.09 230.4 294.52 239.18 282.22 245.01 276.44 249.34 272.55 254.13 268.81 259.34 265.22 264.78 261.52 270.6 257.95 276.71 254.51 283.02 250.95 289.57 247.5 296.32 244.18 303.2 240.73 310.21 237.39 317.33 234.18 324.52 230.84 331.76 227.63 339.03 224.57 346.34 221.39 353.64 218.37 360.9 215.55 368.18 212.63 375.41 209.93 382.54 207.47 389.68 204.97 396.72 202.74 403.61 200.84"
            stroke-dasharray="4 8" transform="rotate(32.32, 400, 400)" opacity="0.42"></path>
        <path
            d="M396.16 211.81C402.55 209.98 408.65 208.52 414.43 207.45 422.92 206.13 438.24 205.66 445.07 206.52 451.58 207.99 463.24 213.15 468.53 216.8 473.86 221.03 484.52 231.43 490.21 237.52 494.42 241.79 498.87 246.34 503.61 251.15 508.84 256.05 514.44 261.18 520.44 266.52 526.93 271.93 533.82 277.53 541.04 283.29 548.62 289.1 556.41 295.05 564.27 301.13 572.19 307.24 579.91 313.46 587.26 319.76 594.22 326.08 600.46 332.48 605.79 338.92 610.28 345.37 613.58 351.86 615.54 358.36 616.4 364.88 615.83 371.4 613.8 377.9 610.77 384.4 606.46 390.88 601.02 397.31 595.04 403.74 588.51 409.96 581.69 415.96 575.04 421.96 568.56 427.73 562.44 433.27 557.05 438.8 552.29 444.09 548.23 449.14 543.96 456.57 540.18 470.2 540.15 476.4 542.63 487.79 545.12 502.92 544.3 507.39 542.48 511.86 535.17 520.42 529.76 524.61 525.67 527.56 521.06 530.49 516 533.38 510.73 536.5 505.09 539.62 499.14 542.74 493.06 546.1 486.75 549.46 480.27 552.83 473.72 556.42 467.06 560.01 460.33 563.55 453.57 567.28 446.78 570.94 439.98 574.48 433.19 578.14 426.4 581.63 419.64 584.88 412.88 588.16 406.31 591.06 399.92 593.55 393.52 595.96 387.29 597.91 381.21 599.37 375.1 600.67 369.13 601.44 363.27 601.69 357.35 601.73 351.51 601.22 345.75 600.18 339.9 598.92 334.08 597.12 328.3 594.83 322.39 592.31 316.48 589.31 310.58 585.86 304.54 582.23 298.49 578.17 292.44 573.75 286.28 569.17 280.14 564.25 274.04 559.04 267.9 553.71 261.85 548.13 255.96 542.33 250.11 536.45 244.49 530.39 239.17 524.18 234.03 517.93 229.28 511.55 224.98 505.07 220.99 498.58 217.54 492.02 214.69 485.4 212.22 478.79 210.38 472.13 209.2 465.47 208.4 458.8 208.23 452.13 208.67 445.48 209.38 438.83 210.6 432.19 212.29 425.59 214.02 419 216.07 412.43 218.36 405.92 220.44 399.41 222.56 393.1 224.64 386.99 226.35 380.88 227.96 374.97 229.45 369.27 230.98 360.8 233.11 344.84 233.93 337.34 234.53 330 236.66 316.21 238.49 309.75 240.85 303.38 248.03 291.37 252.89 285.7 258.54 280.05 272.23 269.26 280.11 264.11 285.65 260.6 291.46 257.21 297.49 253.94 303.65 250.54 309.99 247.27 316.45 244.12 323 240.86 329.64 237.72 336.32 234.74 343.05 231.66 349.8 228.73 356.51 226 363.27 223.18 369.97 220.57 376.59 218.2 383.22 215.8 389.75 213.65 396.15 211.81"
            stroke-dasharray="8 4" transform="rotate(36.36, 400, 400)" opacity="0.63"></path>
        <path
            d="M389.12 222.78C397.86 220.31 414.02 217.23 421.42 216.66 431.11 216.41 439.8 217.73 447.61 220.53 455.71 223.78 463.38 228.51 470.94 234.55 479.49 241.02 488.65 248.72 498.77 257.41 510.48 266.44 523.43 276.34 537.38 286.92 552.2 297.69 566.9 309.02 580.31 320.7 592 332.48 600.33 344.53 604.15 356.65 604.63 362.73 603.84 368.82 601.78 374.89 598.86 380.96 594.81 387.02 589.77 393.03 584.25 399.04 578.22 404.86 571.9 410.48 565.7 416.1 559.58 421.51 553.72 426.71 543.85 437.09 536.21 446.62 531 455.24 528.93 463.89 528.44 471.69 528.68 478.65 530.14 485.76 530.72 492.19 529.8 498 528.36 504.2 524.75 510.01 519.01 515.51 512.39 521.68 503.89 527.76 493.91 533.75 483.44 540.56 471.94 547.33 459.82 553.91 453.71 557.44 447.49 560.89 441.2 564.21 434.9 567.64 428.54 570.88 422.15 573.91 415.75 576.96 409.46 579.65 403.3 581.96 397.12 584.21 391.04 586.04 385.07 587.42 373.04 589.78 361.28 590.18 349.75 588.67 337.92 586.39 326.11 582.21 314.35 576.32 302.26 569.76 290.21 561.7 278.44 552.43 266.71 542.73 255.64 532.06 245.72 520.71 236.61 509.18 229.25 497.13 224.07 484.82 220.28 472.47 218.84 459.94 219.78 447.41 220.6 441.14 221.89 434.89 223.6 428.65 225.34 422.43 227.36 416.22 229.61 410.05 231.67 403.88 233.77 397.9 235.85 392.1 237.58 386.3 239.24 380.69 240.79 375.26 242.69 364.37 244.3 354.19 245.84 344.76 246.44 335.22 247.7 326.35 249.92 318.16 252.29 309.76 256.19 301.94 261.63 294.72 267.79 287.16 275.53 280.09 284.58 273.52 294.29 266.54 305.04 259.99 316.47 253.96 328.25 247.51 340.43 241.61 352.67 236.41 358.83 233.7 364.98 231.2 371.06 228.92 377.16 226.61 383.19 224.56 389.11 222.78"
            stroke-dasharray="7 7" transform="rotate(40.400000000000006, 400, 400)" opacity="0.53"></path>
        <path
            d="M383.27 233.75C394.21 230.4 404.34 228.4 413.64 227.75 422.98 227.38 431.64 228.45 439.75 230.89 448.21 233.72 456.53 237.91 464.99 243.32 474.35 249.11 484.38 256.04 495.25 263.92 507.34 272.1 520.33 281.13 533.85 290.81 547.75 300.68 561.12 311.1 572.93 321.87 582.99 332.74 589.85 343.9 592.62 355.14 592.12 366.43 587.29 377.76 578.51 388.96 568.14 400.17 556.5 410.68 545.02 420.43 535.34 430.17 527.39 439.16 521.43 447.36 518.2 455.59 516.46 463.1 515.58 469.88 516.07 476.83 516.14 483.2 515.19 489.04 514.14 495.25 511.37 501.12 506.81 506.71 501.64 512.88 494.73 518.94 486.34 524.87 477.52 531.49 467.54 538.01 456.72 544.26 445.78 551.05 434.21 557.38 422.22 562.94 410.22 568.57 398.38 572.79 386.76 575.48 375.08 577.75 363.48 578.27 352 577.06 340.33 575.21 328.65 571.63 317.05 566.5 305.29 560.78 293.68 553.65 282.49 545.36 271.52 536.69 261.35 527.06 252.4 516.73 244.33 506.21 237.96 495.15 233.67 483.77 230.63 472.34 229.74 460.67 230.98 448.96 232.93 437.24 236.36 425.5 240.86 413.87 244.68 402.25 248.52 391.26 252.06 380.96 254.18 370.62 256.02 360.92 257.73 351.89 258.48 342.75 259.71 334.2 261.67 326.27 263.58 318.15 266.75 310.54 271.24 303.47 276.23 296.11 282.66 289.18 290.33 282.75 298.53 275.94 307.8 269.56 317.81 263.7 328.15 257.48 338.98 251.79 350.01 246.79 361.16 241.57 372.33 237.15 383.26 233.76"
            stroke-dasharray="8 1" transform="rotate(44.44, 400, 400)" opacity="0.83"></path>
        <path
            d="M379.27 244.73C389.37 241.52 398.95 239.58 407.98 238.87 417.07 238.4 425.79 239.25 434.23 241.35 443.03 243.78 451.92 247.47 461.08 252.27 471.01 257.41 481.57 263.6 492.79 270.7 504.87 278.05 517.49 286.22 530.24 295.01 542.99 303.98 554.9 313.49 565.11 323.36 573.59 333.32 579.1 343.57 580.95 353.95 580.04 364.36 575.37 374.84 567.26 385.23 557.78 395.63 547.08 405.43 536.32 414.56 526.96 423.68 518.86 432.16 512.36 439.95 508.17 447.79 505.31 455.02 503.35 461.63 502.79 468.4 502.13 474.69 500.86 480.53 499.8 486.7 497.46 492.58 493.67 498.19 489.53 504.3 483.85 510.29 476.77 516.1 469.36 522.48 460.76 528.7 451.17 534.62 441.47 540.96 430.97 546.84 419.84 551.96 408.7 557.15 397.49 561.04 386.32 563.55 375.11 565.72 363.87 566.32 352.66 565.37 341.36 563.89 330.06 560.86 318.88 556.4 307.7 551.45 296.78 545.2 286.39 537.85 276.36 530.16 267.21 521.53 259.33 512.2 252.32 502.7 246.96 492.62 243.52 482.18 241.18 471.69 240.78 460.91 242.28 450.03 244.35 439.15 247.74 428.18 252.12 417.28 255.87 406.37 259.68 396.01 263.27 386.27 265.57 376.48 267.64 367.26 269.56 358.62 270.52 349.89 271.81 341.68 273.65 334.02 275.27 326.19 277.91 318.81 281.65 311.93 285.68 304.78 290.98 298.05 297.41 291.77 304.25 285.18 312.12 279.01 320.78 273.33 329.71 267.36 339.23 261.91 349.08 257.13 359.03 252.16 369.16 247.97 379.27 244.73"
            stroke-dasharray="4 3" transform="rotate(48.48, 400, 400)" opacity="0.37"></path>
        <path
            d="M377.54 255.7C386.89 252.66 395.97 250.78 404.77 250.03 413.65 249.48 422.41 250.13 431.12 251.92 440.15 253.99 449.41 257.2 459.01 261.43 469.18 265.95 479.9 271.44 491.07 277.77 502.75 284.33 514.66 291.66 526.37 299.59 537.79 307.67 548.18 316.27 556.8 325.25 563.8 334.3 568.1 343.66 569.17 353.17 567.93 362.71 563.45 372.35 556 381.95 547.4 391.56 537.62 400.65 527.63 409.18 518.68 417.71 510.61 425.69 503.77 433.09 498.82 440.55 495.01 447.49 492.05 453.91 490.45 460.5 488.95 466.67 487.16 472.46 485.79 478.54 483.51 484.37 480.12 489.94 476.6 495.93 471.79 501.78 465.72 507.41 459.44 513.51 452 519.41 443.53 524.97 434.97 530.87 425.51 536.29 415.28 540.99 405.04 545.74 394.57 549.31 384 551.63 373.43 553.68 362.73 554.33 352.04 553.6 341.34 552.44 330.65 549.88 320.16 546.05 309.79 541.8 299.76 536.35 290.36 529.89 281.4 523.12 273.37 515.46 266.61 507.1 260.67 498.58 256.28 489.48 253.64 479.99 251.95 470.43 251.98 460.56 253.69 450.53 255.83 440.49 259.15 430.32 263.37 420.15 267.03 409.98 270.79 400.28 274.4 391.09 276.87 381.88 279.15 373.14 281.29 364.92 282.5 356.61 283.93 348.75 285.77 341.38 287.26 333.86 289.55 326.74 292.74 320.07 296.04 313.18 300.42 306.67 305.82 300.6 311.48 294.26 318.12 288.32 325.55 282.86 333.19 277.17 341.48 271.98 350.23 267.43 359.05 262.74 368.2 258.77 377.54 255.7"
            stroke-dasharray="6 0" transform="rotate(52.52, 400, 400)" opacity="0.68"></path>
        <path
            d="M378.29 266.67C386.93 263.8 395.55 262 404.11 261.22 412.74 260.61 421.45 261.09 430.27 262.59 439.34 264.33 448.72 267.09 458.41 270.79 468.5 274.72 478.98 279.55 489.71 285.16 500.66 290.96 511.58 297.47 522.05 304.55 532.04 311.77 540.89 319.5 548 327.59 553.64 335.76 556.86 344.24 557.28 352.89 555.79 361.57 551.55 370.39 544.75 379.22 536.98 388.05 528.11 396.46 518.92 404.4 510.47 412.34 502.59 419.84 495.59 426.85 490.12 433.91 485.56 440.56 481.75 446.77 479.18 453.13 476.83 459.16 474.41 464.84 472.52 470.78 470.03 476.49 466.74 481.95 463.49 487.76 459.21 493.4 453.87 498.81 448.42 504.59 441.9 510.14 434.4 515.31 426.82 520.76 418.34 525.73 409.03 530.02 399.72 534.35 390.08 537.6 380.26 539.72 370.47 541.64 360.52 542.31 350.56 541.76 340.67 540.87 330.83 538.74 321.25 535.46 311.87 531.84 302.91 527.14 294.63 521.49 286.83 515.59 279.97 508.84 274.32 501.42 269.43 493.85 265.95 485.71 264.06 477.15 262.94 468.52 263.33 459.55 265.18 450.38 267.37 441.19 270.59 431.83 274.63 422.41 278.17 412.99 281.85 403.95 285.44 395.35 288.05 386.72 290.52 378.49 292.87 370.7 294.35 362.83 295.99 355.36 297.91 348.31 299.41 341.13 301.52 334.31 304.35 327.9 307.14 321.3 310.84 315.05 315.41 309.21 320.13 303.16 325.73 297.49 332.12 292.29 338.63 286.9 345.83 282 353.59 277.7 361.38 273.3 369.65 269.57 378.29 266.67"
            stroke-dasharray="10 8" transform="rotate(56.56, 400, 400)" opacity="0.31"></path>
        <path
            d="M381.43 277.65C389.41 274.96 397.55 273.24 405.79 272.46 414.1 271.8 422.61 272.12 431.31 273.37 440.2 274.8 449.39 277.16 458.83 280.36 468.5 283.75 478.41 287.96 488.36 292.88 498.32 297.95 508.04 303.68 517.13 309.96 525.65 316.35 532.99 323.23 538.69 330.47 543.11 337.77 545.4 345.39 545.28 353.21 543.63 361.04 539.65 369.05 533.49 377.12 526.54 385.18 518.56 392.92 510.18 400.28 502.32 407.64 494.75 414.64 487.79 421.25 482.01 427.92 476.92 434.24 472.45 440.21 469.04 446.31 465.91 452.12 462.84 457.65 460.33 463.38 457.47 468.91 454.06 474.2 450.82 479.77 446.79 485.15 441.92 490.28 437.01 495.7 431.2 500.87 424.51 505.65 417.77 510.64 410.18 515.17 401.79 519.05 393.4 522.96 384.66 525.9 375.72 527.83 366.83 529.6 357.79 530.27 348.77 529.87 339.85 529.2 331.04 527.44 322.54 524.65 314.29 521.6 306.5 517.56 299.43 512.67 292.82 507.57 287.12 501.68 282.56 495.15 278.66 488.49 276.02 481.27 274.78 473.62 274.15 465.91 274.83 457.84 276.78 449.52 278.96 441.19 282.05 432.65 285.88 423.99 289.28 415.34 292.85 406.98 296.39 398.98 299.1 390.95 301.73 383.25 304.27 375.92 306.02 368.54 307.89 361.48 309.96 354.78 311.57 347.98 313.65 341.5 316.29 335.38 318.78 329.12 322 323.18 325.98 317.62 329.98 311.89 334.77 306.53 340.31 301.62 345.89 296.56 352.17 291.96 359.07 287.94 365.97 283.83 373.45 280.36 381.43 277.65"
            stroke-dasharray="3 2" transform="rotate(60.599999999999994, 400, 400)" opacity="0.77"></path>
        <path
            d="M386.61 288.62C393.97 286.12 401.58 284.5 409.39 283.72 417.26 283.04 425.39 283.24 433.73 284.26 442.18 285.41 450.89 287.4 459.75 290.14 468.71 293.03 477.75 296.66 486.66 300.93 495.44 305.32 503.82 310.32 511.48 315.83 518.55 321.43 524.47 327.49 528.89 333.91 532.22 340.37 533.72 347.16 533.19 354.17 531.45 361.19 527.76 368.4 522.23 375.72 516.06 383.04 508.95 390.11 501.4 396.88 494.19 403.66 487.06 410.16 480.31 416.35 474.43 422.59 469.03 428.56 464.12 434.23 460.07 440.02 456.29 445.57 452.63 450.87 449.52 456.35 446.22 461.62 442.58 466.67 439.17 471.93 435.19 477.01 430.59 481.81 426.02 486.84 420.72 491.6 414.69 495.97 408.64 500.51 401.85 504.59 394.35 508.07 386.86 511.58 379.06 514.21 371.1 515.95 363.18 517.57 355.17 518.22 347.22 517.94 339.39 517.45 331.73 516 324.42 513.65 317.36 511.09 310.8 507.67 304.95 503.47 299.51 499.09 294.93 494.01 291.39 488.32 288.38 482.52 286.49 476.17 285.8 469.41 285.59 462.59 286.49 455.39 288.48 447.92 290.6 440.45 293.53 432.72 297.14 424.85 300.36 416.97 303.79 409.31 307.25 401.93 310.01 394.53 312.75 387.39 315.44 380.56 317.45 373.68 319.55 367.07 321.8 360.78 323.59 354.4 325.73 348.3 328.31 342.53 330.67 336.64 333.62 331.05 337.19 325.82 340.7 320.46 344.91 315.44 349.78 310.85 354.64 306.14 360.18 301.87 366.34 298.14 372.49 294.35 379.26 291.13 386.61 288.62"
            stroke-dasharray="9 9" transform="rotate(64.64, 400, 400)" opacity="0.32"></path>
        <path
            d="M393.27 299.59C399.99 297.3 407.02 295.79 414.28 295.03 421.58 294.34 429.13 294.43 436.86 295.24 444.65 296.17 452.62 297.82 460.62 300.14 468.63 302.57 476.59 305.66 484.28 309.33 491.77 313.09 498.77 317.4 505 322.18 510.69 327.03 515.31 332.31 518.59 337.94 521 343.61 521.85 349.59 521.02 355.8 519.26 362.03 515.88 368.47 510.97 375.05 505.56 381.63 499.3 388.03 492.58 394.21 486.06 400.4 479.49 406.39 473.09 412.13 467.32 417.91 461.84 423.48 456.7 428.82 452.23 434.24 447.98 439.48 443.88 444.48 440.25 449.63 436.54 454.6 432.65 459.34 429 464.25 424.98 468.96 420.52 473.4 416.13 478.01 411.21 482.34 405.72 486.29 400.24 490.36 394.17 494.01 387.54 497.1 380.91 500.21 374.05 502.54 367.11 504.09 360.22 505.55 353.29 506.17 346.49 505.96 339.8 505.62 333.33 504.44 327.25 502.47 318.72 498.91 305.25 488.01 300.84 480.93 298.62 475.93 297.37 470.42 297.14 464.5 297.25 458.54 298.3 452.2 300.26 445.57 302.31 438.93 305.05 432.03 308.39 424.94 311.42 417.85 314.67 410.91 318 404.18 320.77 397.44 323.57 390.89 326.36 384.59 328.58 378.26 330.88 372.15 333.31 366.3 335.31 360.39 337.58 354.72 340.18 349.34 342.54 343.88 345.36 338.68 348.69 333.82 351.9 328.86 355.7 324.22 360.07 319.97 364.41 315.65 369.35 311.73 374.89 308.31 380.42 304.84 386.54 301.9 393.27 299.59"
            stroke-dasharray="5 0" transform="rotate(68.68, 400, 400)" opacity="0.50"></path>
        <path
            d="M400.66 310.56C412.83 306.44 426.2 305.12 440.02 306.33 453.88 307.85 467.96 311.91 480.95 318.06 493 324.49 502.54 332.85 507.83 342.58 510.42 352.42 507.78 363.44 499.72 375.14 490.09 386.84 478.21 398.11 466.07 408.58 455.58 419.2 445.7 429.26 436.59 438.46 429 448.08 421.03 457.09 412.24 465.02 403.78 473.45 393.72 480.75 382.09 486.13 370.46 491.58 358.47 494.15 347.06 493.97 336.05 493.38 326.27 489.91 318.77 484 312.36 477.68 308.83 469.13 308.77 458.94 309.62 448.61 313.36 436.87 319.65 424.28 324.91 411.68 330.9 399.44 336.98 388.02 341.25 376.5 346.07 365.63 351.65 355.82 356.29 345.78 362.55 336.66 370.63 329.01 378.48 321.12 388.49 314.74 400.66 310.56"
            stroke-dasharray="9 9" transform="rotate(72.72, 400, 400)" opacity="0.75"></path>
        <path
            d="M407.99 321.54C418.82 317.85 430.56 316.6 442.49 317.53 454.35 318.66 466.05 321.99 476.45 327.14 485.95 332.48 493.1 339.52 496.64 347.84 498.16 356.22 495.49 365.74 488.47 375.99 480.26 386.23 469.99 396.26 459.19 405.69 449.4 415.23 439.79 424.37 430.7 432.76 422.72 441.45 414.57 449.58 406.07 456.68 397.88 464.13 388.71 470.51 378.62 475.16 368.53 479.86 358.53 482.08 349.32 481.96 340.42 481.57 332.8 478.74 327.27 473.81 322.49 468.6 320.17 461.43 320.7 452.76 321.77 443.98 325.25 433.87 330.9 422.88 335.74 411.88 341.4 401.06 347.29 390.85 351.8 380.59 356.84 370.83 362.49 361.99 367.31 352.99 373.39 344.81 380.88 337.95 388.12 330.93 397.15 325.26 407.99 321.54"
            stroke-dasharray="2 5" transform="rotate(76.76, 400, 400)" opacity="0.50"></path>
        <path
            d="M414.43 332.51C423.86 329.28 433.82 328.13 443.68 328.81 453.42 329.64 462.71 332.31 470.64 336.53 477.82 340.88 482.91 346.71 485.04 353.68 485.76 360.69 483.2 368.75 477.21 377.56 470.38 386.37 461.71 395.1 452.38 403.41 443.6 411.8 434.68 419.89 426.05 427.35 418.16 435.01 410.18 442.15 402.16 448.36 394.39 454.79 386.12 460.25 377.5 464.18 368.87 468.15 360.71 470.03 353.5 469.95 343.62 468.56 332.7 456.2 332.89 446.01 334.05 438.7 337.18 430.18 342.16 420.78 346.51 411.38 351.71 402.02 357.27 393.12 361.82 384.18 366.91 375.63 372.49 367.85 377.41 359.97 383.29 352.81 390.22 346.8 396.92 340.69 405 335.77 414.43 332.51"
            stroke-dasharray="6 8" transform="rotate(80.80000000000001, 400, 400)" opacity="0.86"></path>
        <path
            d="M419.28 343.48C427.22 340.74 435.33 339.71 443.09 340.2 450.72 340.77 457.73 342.86 463.44 346.24 470.3 352.04 472.08 369.13 465.96 379.82 460.43 387.18 453.35 394.57 445.57 401.67 438.06 408.82 430.19 415.76 422.43 422.18 415.1 428.72 407.7 434.8 400.43 440.05 393.33 445.44 386.06 449.98 378.85 453.21 368.39 457.24 352.18 456.88 347.44 452.74 345.05 449.39 344.29 444.65 345.32 438.77 346.45 432.84 349.17 425.85 353.41 418.05 357.21 410.25 361.84 402.4 366.89 394.87 371.26 387.33 376.17 380.06 381.48 373.43 386.33 366.75 391.9 360.67 398.16 355.56 404.27 350.41 411.34 346.25 419.28 343.48"
            stroke-dasharray="7 9" transform="rotate(84.84, 400, 400)" opacity="0.35"></path>
        <path
            d="M422.01 354.45C434.8 350.02 446.85 351.03 454.88 356.22 461.49 361.55 462.06 370.85 454.7 382.69 445.91 394.53 432.83 406.75 419.57 417.21 407.15 427.95 394.18 437.17 382.54 442.24 366.71 447.15 356.64 431.98 364.67 414.77 370.63 402.35 379.51 389.54 389.36 378.77 398.06 367.91 409.22 358.95 422.01 354.45"
            stroke-dasharray="9 8" transform="rotate(88.88, 400, 400)" opacity="0.72"></path>
        <path
            d="M422.32 365.43C436.02 362.35 449.1 373.73 443.45 386.09 437.08 395.01 427.35 404.36 417.18 412.39 407.31 420.56 396.99 427.51 388.14 431.26 376.34 434.89 369.74 423.81 375.92 411.04 380.68 401.78 387.96 392.09 396.07 383.89 403.59 375.66 412.72 368.86 422.32 365.43"
            stroke-dasharray="4 4" transform="rotate(92.92, 400, 400)" opacity="0.92"></path>
        <path
            d="M420.17 376.4C432.9 371.81 439.21 377.93 432.19 389.91 423.82 401.88 407.06 415.38 395.05 420.29 383.04 425.27 379.63 419.26 387.17 406.98 393.49 394.69 407.42 381.06 420.17 376.4"
            stroke-dasharray="2 7" transform="rotate(96.96, 400, 400)" opacity="0.85"></path>
    </g>
</svg>