<svg xmlns="http://www.w3.org/2000/svg" width="256" height="256" viewBox="0 0 100 100"><rect width="100" height="100" rx="20" fill="#121212"></rect><path fill="#fff" d="M55.67 16.88L55.67 16.88Q61.61 16.88 65.44 18.64Q69.26 20.39 72.23 22.73L72.23 22.73Q74.03 24.08 74.97 23.05Q75.92 22.01 76.28 18.14L76.28 18.14L78.35 18.14Q78.17 21.74 78.08 26.91Q77.99 32.09 77.99 40.64L77.99 40.64L75.92 40.64Q75.56 36.32 74.75 32.95Q73.94 29.57 72.32 26.96Q70.70 24.35 67.64 22.37L67.64 22.37Q65.75 21.11 63.64 20.39Q61.52 19.67 59.27 19.67L59.27 19.67Q54.14 19.67 50.81 22.51Q47.48 25.34 45.64 29.88Q43.79 34.43 43.07 39.79Q42.35 45.14 42.35 50.18L42.35 50.18Q42.35 55.22 43.07 60.58Q43.79 65.93 45.64 70.47Q47.48 75.02 50.81 77.86Q54.14 80.69 59.27 80.69L59.27 80.69Q61.52 80.69 63.64 79.92Q65.75 79.16 67.64 77.99L67.64 77.99Q72.14 75.20 73.72 70.52Q75.29 65.84 75.92 58.46L75.92 58.46L77.99 58.46Q77.99 67.28 78.08 72.72Q78.17 78.17 78.35 81.86L78.35 81.86L76.28 81.86Q75.92 77.99 75.06 77Q74.21 76.01 72.23 77.27L72.23 77.27Q68.90 79.61 65.16 81.36Q61.43 83.12 55.58 83.12L55.58 83.12Q45.41 83.12 37.76 79.25Q30.11 75.38 25.88 68.09Q21.65 60.80 21.65 50.54L21.65 50.54Q21.65 40.46 26.02 32.90Q30.38 25.34 38.03 21.11Q45.68 16.88 55.67 16.88Z"></path></svg>